<!--?xml version="1.0" encoding="utf-8"?-->
<!-- Generator: Adobe Illustrator 18.1.1, SVG Export Plug-In . SVG Version: 6.00 Build 0)  -->

<svg version="1.1" id="_x32_" xmlns="http://www.w3.org/2000/svg" xmlns:xlink="http://www.w3.org/1999/xlink" x="0px" y="0px" viewBox="0 0 512 512" style="width: 256px; height: 256px; opacity: 1;" xml:space="preserve">
<style type="text/css">
	.st0{fill:#4B4B4B;}
</style>
<g>
	<path class="st0" d="M90.381,236.916l46.081-46.073C111.012,190.844,90.381,211.475,90.381,236.916z" style="fill: rgb(58, 171, 210);"></path>
	<path class="st0" d="M453.779,0v212.939h-21.618c-11.244-45.722-52.499-79.638-101.693-79.638H131.577
		c-49.185,0-90.43,33.917-101.684,79.638H7.438v53.611h23.367c12.424,43.982,52.825,76.224,100.772,76.224
		c40.518,0,65.75-15.979,88.499-46.299c4.158-5.555,8.324-7.395,10.951-7.395c2.628,0,6.794,1.84,10.951,7.395
		c22.74,30.32,47.981,46.299,88.49,46.299c47.964,0,88.365-32.243,100.78-76.224h22.53v56.372
		c-0.008,13.118-2.644,25.492-7.412,36.795c-7.17,16.942-19.193,31.432-34.302,41.631c-7.546,5.104-15.854,9.136-24.723,11.888
		c-8.868,2.761-18.288,4.25-28.136,4.25h-60.01c-0.603-1.84-1.264-3.664-2.017-5.438c-5.472-12.935-14.566-23.886-26.044-31.633
		c-11.462-7.756-25.409-12.306-40.242-12.306c-9.88,0-19.385,2.016-28.002,5.672c-12.942,5.463-23.885,14.566-31.641,26.036
		c-7.756,11.462-12.306,25.409-12.299,40.242c0,9.88,2.017,19.393,5.656,28.01c5.488,12.935,14.582,23.877,26.052,31.633
		c11.453,7.756,25.4,12.306,40.234,12.299c9.88,0,19.393-2.008,28.01-5.664c12.943-5.48,23.886-14.574,31.633-26.044
		c2.544-3.757,4.736-7.789,6.542-12.022h62.128c20.004,0,39.188-4.066,56.59-11.437c26.119-11.052,48.256-29.441,63.935-52.632
		c7.822-11.596,14.046-24.396,18.289-38.067c4.258-13.67,6.542-28.219,6.542-43.212V0H453.779z M330.468,303.278
		c-25.433,0-39.781-7.698-56.891-30.504c-11.06-14.742-26.563-23.2-42.551-23.2c-15.979,0-31.498,8.458-42.551,23.2
		c-17.101,22.806-31.465,30.504-56.899,30.504c-35.966,0-65.232-29.274-65.232-65.24c0-35.976,29.265-65.241,65.232-65.241h198.892
		c35.983,0,65.249,29.265,65.249,65.241C395.717,274.004,366.451,303.278,330.468,303.278z M260.802,452.675
		c-2.451,5.806-6.592,10.792-11.78,14.298c-5.204,3.497-11.344,5.521-18.13,5.53c-4.526,0-8.743-0.912-12.624-2.544
		c-5.79-2.451-10.784-6.592-14.29-11.78c-3.497-5.195-5.521-11.336-5.53-18.121c0.009-4.543,0.912-8.751,2.544-12.624
		c2.451-5.798,6.592-10.793,11.78-14.29c5.204-3.506,11.336-5.53,18.121-5.53c4.543,0,8.751,0.904,12.624,2.544
		c5.798,2.442,10.793,6.584,14.29,11.771c3.506,5.204,5.53,11.336,5.53,18.13C263.337,444.592,262.433,448.809,260.802,452.675z" style="fill: rgb(58, 171, 210);"></path>
</g>
</svg>
